<mxfile host="app.diagrams.net" modified="2023-12-03T21:33:56.645Z" agent="Mozilla/5.0 (Windows NT 10.0; Win64; x64) AppleWebKit/537.36 (KHTML, like Gecko) Chrome/119.0.0.0 Safari/537.36 Edg/119.0.0.0" etag="zQmdk1lLx9KsXGyMgEtz" version="22.1.5" type="device" pages="2">
  <diagram name="Страница — 1" id="o3sYmgAIau1fM3dsohi6">
    <mxGraphModel dx="928" dy="480" grid="1" gridSize="10" guides="1" tooltips="1" connect="1" arrows="1" fold="1" page="1" pageScale="1" pageWidth="3300" pageHeight="2339" math="0" shadow="0">
      <root>
        <mxCell id="0" />
        <mxCell id="1" parent="0" />
        <mxCell id="FY81dZ7kDu10n6bw8b0m-5" value="&lt;font style=&quot;font-size: 14px;&quot;&gt;&lt;br&gt;Регистрация и авторизация&lt;/font&gt;" style="html=1;align=center;verticalAlign=top;rounded=1;absoluteArcSize=1;arcSize=10;dashed=0;whiteSpace=wrap;" parent="1" vertex="1">
          <mxGeometry x="970" y="1130" width="180" height="90" as="geometry" />
        </mxCell>
        <mxCell id="FY81dZ7kDu10n6bw8b0m-6" value="" style="endArrow=classic;html=1;rounded=0;entryX=0.5;entryY=0;entryDx=0;entryDy=0;" parent="1" target="FY81dZ7kDu10n6bw8b0m-5" edge="1">
          <mxGeometry width="50" height="50" relative="1" as="geometry">
            <mxPoint x="1060" y="940" as="sourcePoint" />
            <mxPoint x="1060" y="1120" as="targetPoint" />
          </mxGeometry>
        </mxCell>
        <mxCell id="FY81dZ7kDu10n6bw8b0m-7" value="&lt;font style=&quot;font-size: 10px;&quot;&gt;Пользовательское соглашение&lt;/font&gt;" style="text;html=1;strokeColor=none;fillColor=none;align=center;verticalAlign=middle;whiteSpace=wrap;rounded=0;rotation=-90;" parent="1" vertex="1">
          <mxGeometry x="1030" y="1030" width="60" height="30" as="geometry" />
        </mxCell>
        <mxCell id="FY81dZ7kDu10n6bw8b0m-8" value="" style="endArrow=classic;html=1;rounded=0;entryX=0.007;entryY=0.777;entryDx=0;entryDy=0;entryPerimeter=0;" parent="1" target="FY81dZ7kDu10n6bw8b0m-5" edge="1">
          <mxGeometry width="50" height="50" relative="1" as="geometry">
            <mxPoint x="840" y="1200" as="sourcePoint" />
            <mxPoint x="920" y="1270" as="targetPoint" />
          </mxGeometry>
        </mxCell>
        <mxCell id="FY81dZ7kDu10n6bw8b0m-9" value="" style="endArrow=classic;html=1;rounded=0;entryX=-0.003;entryY=0.214;entryDx=0;entryDy=0;entryPerimeter=0;" parent="1" target="FY81dZ7kDu10n6bw8b0m-5" edge="1">
          <mxGeometry width="50" height="50" relative="1" as="geometry">
            <mxPoint x="830" y="1150" as="sourcePoint" />
            <mxPoint x="890" y="1240" as="targetPoint" />
          </mxGeometry>
        </mxCell>
        <mxCell id="FY81dZ7kDu10n6bw8b0m-11" value="&lt;font style=&quot;font-size: 10px;&quot;&gt;Данные о клиентах&lt;/font&gt;" style="text;html=1;strokeColor=none;fillColor=none;align=center;verticalAlign=middle;whiteSpace=wrap;rounded=0;rotation=0;" parent="1" vertex="1">
          <mxGeometry x="850" y="1125" width="110" height="30" as="geometry" />
        </mxCell>
        <mxCell id="FY81dZ7kDu10n6bw8b0m-12" value="&lt;font style=&quot;font-size: 10px;&quot;&gt;Данные о персонале&lt;/font&gt;" style="text;html=1;strokeColor=none;fillColor=none;align=center;verticalAlign=middle;whiteSpace=wrap;rounded=0;rotation=0;" parent="1" vertex="1">
          <mxGeometry x="850" y="1175" width="110" height="30" as="geometry" />
        </mxCell>
        <mxCell id="ozB75tdWuCOPc9oadPOf-38" style="edgeStyle=orthogonalEdgeStyle;rounded=0;orthogonalLoop=1;jettySize=auto;html=1;exitX=0;exitY=0.25;exitDx=0;exitDy=0;entryX=0;entryY=0.25;entryDx=0;entryDy=0;" parent="1" target="FY81dZ7kDu10n6bw8b0m-13" edge="1">
          <mxGeometry relative="1" as="geometry">
            <mxPoint x="1210" y="1410" as="sourcePoint" />
          </mxGeometry>
        </mxCell>
        <mxCell id="ozB75tdWuCOPc9oadPOf-40" style="edgeStyle=orthogonalEdgeStyle;rounded=0;orthogonalLoop=1;jettySize=auto;html=1;entryX=0.5;entryY=0;entryDx=0;entryDy=0;" parent="1" edge="1">
          <mxGeometry relative="1" as="geometry">
            <mxPoint x="1209.69" y="1580" as="targetPoint" />
            <mxPoint x="1320" y="1550" as="sourcePoint" />
            <Array as="points">
              <mxPoint x="1210" y="1550" />
              <mxPoint x="1210" y="1550" />
            </Array>
          </mxGeometry>
        </mxCell>
        <mxCell id="ozB75tdWuCOPc9oadPOf-42" style="edgeStyle=orthogonalEdgeStyle;rounded=0;orthogonalLoop=1;jettySize=auto;html=1;entryX=0;entryY=0.75;entryDx=0;entryDy=0;" parent="1" target="FY81dZ7kDu10n6bw8b0m-13" edge="1">
          <mxGeometry relative="1" as="geometry">
            <mxPoint x="1040" y="1655" as="sourcePoint" />
          </mxGeometry>
        </mxCell>
        <mxCell id="ozB75tdWuCOPc9oadPOf-44" style="edgeStyle=orthogonalEdgeStyle;rounded=0;orthogonalLoop=1;jettySize=auto;html=1;entryX=0.75;entryY=1;entryDx=0;entryDy=0;" parent="1" target="FY81dZ7kDu10n6bw8b0m-13" edge="1">
          <mxGeometry relative="1" as="geometry">
            <mxPoint x="1295" y="1780" as="sourcePoint" />
          </mxGeometry>
        </mxCell>
        <mxCell id="ozB75tdWuCOPc9oadPOf-46" style="edgeStyle=orthogonalEdgeStyle;rounded=0;orthogonalLoop=1;jettySize=auto;html=1;exitX=1;exitY=0.25;exitDx=0;exitDy=0;" parent="1" edge="1">
          <mxGeometry relative="1" as="geometry">
            <mxPoint x="1450" y="1670" as="targetPoint" />
            <mxPoint x="1340" y="1670" as="sourcePoint" />
          </mxGeometry>
        </mxCell>
        <mxCell id="ozB75tdWuCOPc9oadPOf-65" style="edgeStyle=orthogonalEdgeStyle;rounded=0;orthogonalLoop=1;jettySize=auto;html=1;exitX=0.25;exitY=1;exitDx=0;exitDy=0;entryX=0.25;entryY=1;entryDx=0;entryDy=0;" parent="1" target="FY81dZ7kDu10n6bw8b0m-13" edge="1">
          <mxGeometry relative="1" as="geometry">
            <mxPoint x="1205" y="1820" as="sourcePoint" />
          </mxGeometry>
        </mxCell>
        <mxCell id="FY81dZ7kDu10n6bw8b0m-13" value="&lt;font style=&quot;font-size: 14px;&quot;&gt;&lt;br&gt;&lt;br&gt;Контроль безопасности&lt;/font&gt;" style="html=1;align=center;verticalAlign=top;rounded=1;absoluteArcSize=1;arcSize=10;dashed=0;whiteSpace=wrap;" parent="1" vertex="1">
          <mxGeometry x="1160" y="1580" width="180" height="100" as="geometry" />
        </mxCell>
        <mxCell id="ozB75tdWuCOPc9oadPOf-12" style="edgeStyle=orthogonalEdgeStyle;rounded=0;orthogonalLoop=1;jettySize=auto;html=1;exitX=1;exitY=0.25;exitDx=0;exitDy=0;" parent="1" edge="1">
          <mxGeometry relative="1" as="geometry">
            <mxPoint x="1690" y="1359.8166666666668" as="targetPoint" />
            <mxPoint x="1500" y="1359.65" as="sourcePoint" />
          </mxGeometry>
        </mxCell>
        <mxCell id="ozB75tdWuCOPc9oadPOf-13" style="edgeStyle=orthogonalEdgeStyle;rounded=0;orthogonalLoop=1;jettySize=auto;html=1;exitX=1;exitY=0.5;exitDx=0;exitDy=0;entryX=0;entryY=0.5;entryDx=0;entryDy=0;" parent="1" source="FY81dZ7kDu10n6bw8b0m-14" target="FY81dZ7kDu10n6bw8b0m-39" edge="1">
          <mxGeometry relative="1" as="geometry">
            <mxPoint x="1700" y="1385" as="targetPoint" />
          </mxGeometry>
        </mxCell>
        <mxCell id="ozB75tdWuCOPc9oadPOf-14" style="edgeStyle=orthogonalEdgeStyle;rounded=0;orthogonalLoop=1;jettySize=auto;html=1;exitX=1;exitY=0.75;exitDx=0;exitDy=0;" parent="1" edge="1">
          <mxGeometry relative="1" as="geometry">
            <mxPoint x="1700" y="1410.1666666666667" as="targetPoint" />
            <mxPoint x="1500" y="1410" as="sourcePoint" />
          </mxGeometry>
        </mxCell>
        <mxCell id="FY81dZ7kDu10n6bw8b0m-14" value="&lt;br&gt;&lt;br&gt;&lt;br&gt;&lt;font style=&quot;font-size: 14px;&quot;&gt;Управление гостиницей&lt;/font&gt;" style="html=1;align=center;verticalAlign=top;rounded=1;absoluteArcSize=1;arcSize=10;dashed=0;whiteSpace=wrap;" parent="1" vertex="1">
          <mxGeometry x="1320" y="1330" width="180" height="110" as="geometry" />
        </mxCell>
        <mxCell id="ozB75tdWuCOPc9oadPOf-24" style="edgeStyle=orthogonalEdgeStyle;rounded=0;orthogonalLoop=1;jettySize=auto;html=1;entryX=0.75;entryY=1;entryDx=0;entryDy=0;" parent="1" target="FY81dZ7kDu10n6bw8b0m-15" edge="1">
          <mxGeometry relative="1" as="geometry">
            <mxPoint x="1745" y="1330" as="sourcePoint" />
          </mxGeometry>
        </mxCell>
        <mxCell id="ozB75tdWuCOPc9oadPOf-29" style="edgeStyle=orthogonalEdgeStyle;rounded=0;orthogonalLoop=1;jettySize=auto;html=1;exitX=0;exitY=0.5;exitDx=0;exitDy=0;entryX=0;entryY=0.5;entryDx=0;entryDy=0;" parent="1" target="FY81dZ7kDu10n6bw8b0m-15" edge="1">
          <mxGeometry relative="1" as="geometry">
            <mxPoint x="1460" y="1162.3846153846152" as="sourcePoint" />
          </mxGeometry>
        </mxCell>
        <mxCell id="ozB75tdWuCOPc9oadPOf-31" style="edgeStyle=orthogonalEdgeStyle;rounded=0;orthogonalLoop=1;jettySize=auto;html=1;exitX=1;exitY=0.25;exitDx=0;exitDy=0;" parent="1" source="FY81dZ7kDu10n6bw8b0m-15" edge="1">
          <mxGeometry relative="1" as="geometry">
            <mxPoint x="1855" y="1138.6666666666667" as="targetPoint" />
          </mxGeometry>
        </mxCell>
        <mxCell id="ozB75tdWuCOPc9oadPOf-32" style="edgeStyle=orthogonalEdgeStyle;rounded=0;orthogonalLoop=1;jettySize=auto;html=1;exitX=1;exitY=0.75;exitDx=0;exitDy=0;entryX=0;entryY=0.25;entryDx=0;entryDy=0;" parent="1" source="FY81dZ7kDu10n6bw8b0m-15" target="FY81dZ7kDu10n6bw8b0m-39" edge="1">
          <mxGeometry relative="1" as="geometry">
            <mxPoint x="1940" y="1186" as="targetPoint" />
          </mxGeometry>
        </mxCell>
        <mxCell id="ozB75tdWuCOPc9oadPOf-74" style="edgeStyle=orthogonalEdgeStyle;rounded=0;orthogonalLoop=1;jettySize=auto;html=1;exitX=0.25;exitY=1;exitDx=0;exitDy=0;entryX=0.25;entryY=1;entryDx=0;entryDy=0;" parent="1" target="FY81dZ7kDu10n6bw8b0m-15" edge="1">
          <mxGeometry relative="1" as="geometry">
            <mxPoint x="1655.1724137931037" y="1319.9999999999998" as="sourcePoint" />
          </mxGeometry>
        </mxCell>
        <mxCell id="ozB75tdWuCOPc9oadPOf-77" style="edgeStyle=orthogonalEdgeStyle;rounded=0;orthogonalLoop=1;jettySize=auto;html=1;exitX=0;exitY=0.75;exitDx=0;exitDy=0;entryX=0;entryY=0.75;entryDx=0;entryDy=0;" parent="1" target="FY81dZ7kDu10n6bw8b0m-15" edge="1">
          <mxGeometry relative="1" as="geometry">
            <mxPoint x="1210" y="1320" as="sourcePoint" />
            <Array as="points">
              <mxPoint x="1210" y="1300" />
              <mxPoint x="1411" y="1300" />
              <mxPoint x="1411" y="1186" />
            </Array>
          </mxGeometry>
        </mxCell>
        <mxCell id="FY81dZ7kDu10n6bw8b0m-15" value="&lt;br&gt;&lt;font style=&quot;font-size: 14px;&quot;&gt;&lt;br&gt;Обслуживание клиента&lt;/font&gt;" style="html=1;align=center;verticalAlign=top;rounded=1;absoluteArcSize=1;arcSize=10;dashed=0;whiteSpace=wrap;" parent="1" vertex="1">
          <mxGeometry x="1610" y="1115" width="180" height="95" as="geometry" />
        </mxCell>
        <mxCell id="FY81dZ7kDu10n6bw8b0m-16" value="" style="endArrow=classic;html=1;rounded=0;entryX=0;entryY=0.25;entryDx=0;entryDy=0;exitX=1;exitY=0.5;exitDx=0;exitDy=0;" parent="1" target="FY81dZ7kDu10n6bw8b0m-15" edge="1">
          <mxGeometry width="50" height="50" relative="1" as="geometry">
            <mxPoint x="1150" y="1139.64" as="sourcePoint" />
            <mxPoint x="1410" y="1139.64" as="targetPoint" />
          </mxGeometry>
        </mxCell>
        <mxCell id="FY81dZ7kDu10n6bw8b0m-17" value="&lt;font style=&quot;font-size: 10px;&quot;&gt;Идентификатор клиента&lt;/font&gt;" style="text;html=1;strokeColor=none;fillColor=none;align=center;verticalAlign=middle;whiteSpace=wrap;rounded=0;rotation=0;" parent="1" vertex="1">
          <mxGeometry x="1190" y="1120" width="140" height="30" as="geometry" />
        </mxCell>
        <mxCell id="FY81dZ7kDu10n6bw8b0m-19" value="" style="endArrow=classic;html=1;rounded=0;exitX=1;exitY=0.5;exitDx=0;exitDy=0;entryX=0;entryY=0.5;entryDx=0;entryDy=0;" parent="1" source="FY81dZ7kDu10n6bw8b0m-5" target="FY81dZ7kDu10n6bw8b0m-14" edge="1">
          <mxGeometry width="50" height="50" relative="1" as="geometry">
            <mxPoint x="1270" y="1310" as="sourcePoint" />
            <mxPoint x="1250" y="1310" as="targetPoint" />
            <Array as="points">
              <mxPoint x="1250" y="1175" />
              <mxPoint x="1250" y="1385" />
            </Array>
          </mxGeometry>
        </mxCell>
        <mxCell id="FY81dZ7kDu10n6bw8b0m-20" value="" style="endArrow=classic;html=1;rounded=0;exitX=1;exitY=0.75;exitDx=0;exitDy=0;entryX=0;entryY=0.75;entryDx=0;entryDy=0;" parent="1" source="FY81dZ7kDu10n6bw8b0m-5" target="FY81dZ7kDu10n6bw8b0m-14" edge="1">
          <mxGeometry width="50" height="50" relative="1" as="geometry">
            <mxPoint x="1035" y="1410" as="sourcePoint" />
            <mxPoint x="1210" y="1320" as="targetPoint" />
            <Array as="points">
              <mxPoint x="1210" y="1198" />
              <mxPoint x="1210" y="1413" />
            </Array>
          </mxGeometry>
        </mxCell>
        <mxCell id="FY81dZ7kDu10n6bw8b0m-21" value="" style="endArrow=classic;html=1;rounded=0;exitX=1;exitY=0.25;exitDx=0;exitDy=0;entryX=0;entryY=0.273;entryDx=0;entryDy=0;entryPerimeter=0;" parent="1" source="FY81dZ7kDu10n6bw8b0m-5" target="FY81dZ7kDu10n6bw8b0m-14" edge="1">
          <mxGeometry width="50" height="50" relative="1" as="geometry">
            <mxPoint x="1120" y="1290" as="sourcePoint" />
            <mxPoint x="1290" y="1310" as="targetPoint" />
            <Array as="points">
              <mxPoint x="1290" y="1153" />
              <mxPoint x="1290" y="1360" />
            </Array>
          </mxGeometry>
        </mxCell>
        <mxCell id="FY81dZ7kDu10n6bw8b0m-23" value="&lt;font style=&quot;font-size: 10px;&quot;&gt;Идентификатор администратора&lt;/font&gt;" style="text;html=1;strokeColor=none;fillColor=none;align=center;verticalAlign=middle;whiteSpace=wrap;rounded=0;rotation=-90;" parent="1" vertex="1">
          <mxGeometry x="1180" y="1235" width="60" height="30" as="geometry" />
        </mxCell>
        <mxCell id="FY81dZ7kDu10n6bw8b0m-24" value="&lt;font style=&quot;font-size: 10px;&quot;&gt;Идентификатор&lt;br&gt;горничной&lt;br&gt;&lt;/font&gt;" style="text;html=1;strokeColor=none;fillColor=none;align=center;verticalAlign=middle;whiteSpace=wrap;rounded=0;rotation=-90;" parent="1" vertex="1">
          <mxGeometry x="1220" y="1215" width="60" height="30" as="geometry" />
        </mxCell>
        <mxCell id="FY81dZ7kDu10n6bw8b0m-25" value="&lt;font style=&quot;font-size: 10px;&quot;&gt;Идентификатор&lt;br&gt;повара&lt;br&gt;&lt;/font&gt;" style="text;html=1;strokeColor=none;fillColor=none;align=center;verticalAlign=middle;whiteSpace=wrap;rounded=0;rotation=-90;" parent="1" vertex="1">
          <mxGeometry x="1260" y="1210" width="60" height="30" as="geometry" />
        </mxCell>
        <mxCell id="FY81dZ7kDu10n6bw8b0m-32" value="" style="endArrow=classic;html=1;rounded=0;entryX=0.111;entryY=1;entryDx=0;entryDy=0;entryPerimeter=0;" parent="1" target="FY81dZ7kDu10n6bw8b0m-5" edge="1">
          <mxGeometry width="50" height="50" relative="1" as="geometry">
            <mxPoint x="990" y="1870" as="sourcePoint" />
            <mxPoint x="990" y="1480" as="targetPoint" />
          </mxGeometry>
        </mxCell>
        <mxCell id="FY81dZ7kDu10n6bw8b0m-33" value="" style="endArrow=classic;html=1;rounded=0;entryX=0.111;entryY=1;entryDx=0;entryDy=0;entryPerimeter=0;" parent="1" edge="1">
          <mxGeometry width="50" height="50" relative="1" as="geometry">
            <mxPoint x="1020" y="1900" as="sourcePoint" />
            <mxPoint x="1019.9999999999999" y="1220" as="targetPoint" />
          </mxGeometry>
        </mxCell>
        <mxCell id="FY81dZ7kDu10n6bw8b0m-34" value="&lt;font style=&quot;font-size: 10px;&quot;&gt;Системный администратор&lt;br&gt;&lt;/font&gt;" style="text;html=1;strokeColor=none;fillColor=none;align=center;verticalAlign=middle;whiteSpace=wrap;rounded=0;rotation=-90;" parent="1" vertex="1">
          <mxGeometry x="990" y="1430" width="60" height="30" as="geometry" />
        </mxCell>
        <mxCell id="FY81dZ7kDu10n6bw8b0m-35" value="&lt;font style=&quot;font-size: 10px;&quot;&gt;Система&lt;br&gt;&lt;/font&gt;" style="text;html=1;strokeColor=none;fillColor=none;align=center;verticalAlign=middle;whiteSpace=wrap;rounded=0;rotation=-90;" parent="1" vertex="1">
          <mxGeometry x="953" y="1430" width="60" height="30" as="geometry" />
        </mxCell>
        <mxCell id="ozB75tdWuCOPc9oadPOf-58" style="edgeStyle=orthogonalEdgeStyle;rounded=0;orthogonalLoop=1;jettySize=auto;html=1;exitX=1;exitY=0.5;exitDx=0;exitDy=0;" parent="1" source="FY81dZ7kDu10n6bw8b0m-39" edge="1">
          <mxGeometry relative="1" as="geometry">
            <mxPoint x="2110" y="1385.0000000000002" as="targetPoint" />
          </mxGeometry>
        </mxCell>
        <mxCell id="ozB75tdWuCOPc9oadPOf-66" style="edgeStyle=orthogonalEdgeStyle;rounded=0;orthogonalLoop=1;jettySize=auto;html=1;exitX=0.25;exitY=1;exitDx=0;exitDy=0;" parent="1" target="FY81dZ7kDu10n6bw8b0m-39" edge="1">
          <mxGeometry relative="1" as="geometry">
            <mxPoint x="1660" y="1820" as="sourcePoint" />
            <Array as="points">
              <mxPoint x="1930" y="1820" />
            </Array>
          </mxGeometry>
        </mxCell>
        <mxCell id="ozB75tdWuCOPc9oadPOf-70" style="edgeStyle=orthogonalEdgeStyle;rounded=0;orthogonalLoop=1;jettySize=auto;html=1;exitX=0.75;exitY=1;exitDx=0;exitDy=0;entryX=0.75;entryY=1;entryDx=0;entryDy=0;" parent="1" target="FY81dZ7kDu10n6bw8b0m-39" edge="1">
          <mxGeometry relative="1" as="geometry">
            <mxPoint x="1020" y="1869.9999999999995" as="sourcePoint" />
          </mxGeometry>
        </mxCell>
        <mxCell id="ozB75tdWuCOPc9oadPOf-79" style="edgeStyle=orthogonalEdgeStyle;rounded=0;orthogonalLoop=1;jettySize=auto;html=1;exitX=1;exitY=0.75;exitDx=0;exitDy=0;entryX=0;entryY=0.75;entryDx=0;entryDy=0;" parent="1" source="FY81dZ7kDu10n6bw8b0m-13" target="FY81dZ7kDu10n6bw8b0m-39" edge="1">
          <mxGeometry relative="1" as="geometry">
            <Array as="points">
              <mxPoint x="1400" y="1655" />
              <mxPoint x="1400" y="1560" />
              <mxPoint x="1780" y="1560" />
              <mxPoint x="1780" y="1407" />
            </Array>
          </mxGeometry>
        </mxCell>
        <mxCell id="FY81dZ7kDu10n6bw8b0m-39" value="&lt;font style=&quot;font-size: 14px;&quot;&gt;&lt;br&gt;Администрирование&lt;br&gt;системы&lt;/font&gt;" style="html=1;align=center;verticalAlign=top;rounded=1;absoluteArcSize=1;arcSize=10;dashed=0;whiteSpace=wrap;" parent="1" vertex="1">
          <mxGeometry x="1860" y="1340" width="150" height="90" as="geometry" />
        </mxCell>
        <mxCell id="ozB75tdWuCOPc9oadPOf-50" style="edgeStyle=orthogonalEdgeStyle;rounded=0;orthogonalLoop=1;jettySize=auto;html=1;entryX=0.5;entryY=1;entryDx=0;entryDy=0;" parent="1" target="Dl9L8k3Tu2RgZ-j4ogxE-1" edge="1">
          <mxGeometry relative="1" as="geometry">
            <mxPoint x="1715" y="1780" as="sourcePoint" />
          </mxGeometry>
        </mxCell>
        <mxCell id="ozB75tdWuCOPc9oadPOf-53" style="edgeStyle=orthogonalEdgeStyle;rounded=0;orthogonalLoop=1;jettySize=auto;html=1;exitX=1;exitY=0.25;exitDx=0;exitDy=0;" parent="1" source="Dl9L8k3Tu2RgZ-j4ogxE-1" edge="1">
          <mxGeometry relative="1" as="geometry">
            <mxPoint x="1860" y="1420" as="targetPoint" />
            <Array as="points">
              <mxPoint x="1840" y="1605" />
              <mxPoint x="1840" y="1420" />
              <mxPoint x="1860" y="1420" />
            </Array>
          </mxGeometry>
        </mxCell>
        <mxCell id="ozB75tdWuCOPc9oadPOf-55" style="edgeStyle=orthogonalEdgeStyle;rounded=0;orthogonalLoop=1;jettySize=auto;html=1;exitX=0;exitY=0.5;exitDx=0;exitDy=0;entryX=0;entryY=0.5;entryDx=0;entryDy=0;" parent="1" target="Dl9L8k3Tu2RgZ-j4ogxE-1" edge="1">
          <mxGeometry relative="1" as="geometry">
            <mxPoint x="1210" y="1490" as="sourcePoint" />
            <Array as="points">
              <mxPoint x="1210" y="1500" />
              <mxPoint x="1360" y="1500" />
              <mxPoint x="1360" y="1630" />
            </Array>
          </mxGeometry>
        </mxCell>
        <mxCell id="ozB75tdWuCOPc9oadPOf-62" style="edgeStyle=orthogonalEdgeStyle;rounded=0;orthogonalLoop=1;jettySize=auto;html=1;exitX=0;exitY=0.75;exitDx=0;exitDy=0;entryX=0;entryY=0.75;entryDx=0;entryDy=0;" parent="1" target="Dl9L8k3Tu2RgZ-j4ogxE-1" edge="1">
          <mxGeometry relative="1" as="geometry">
            <mxPoint x="1560" y="1780" as="sourcePoint" />
            <Array as="points">
              <mxPoint x="1560" y="1655" />
            </Array>
          </mxGeometry>
        </mxCell>
        <mxCell id="ozB75tdWuCOPc9oadPOf-64" style="edgeStyle=orthogonalEdgeStyle;rounded=0;orthogonalLoop=1;jettySize=auto;html=1;exitX=0.25;exitY=1;exitDx=0;exitDy=0;entryX=0.25;entryY=1;entryDx=0;entryDy=0;" parent="1" target="Dl9L8k3Tu2RgZ-j4ogxE-1" edge="1">
          <mxGeometry relative="1" as="geometry">
            <mxPoint x="1490" y="1820" as="sourcePoint" />
            <Array as="points">
              <mxPoint x="1663" y="1820" />
            </Array>
          </mxGeometry>
        </mxCell>
        <mxCell id="Dl9L8k3Tu2RgZ-j4ogxE-1" value="&lt;span style=&quot;font-size: 14px;&quot;&gt;&lt;br&gt;&lt;br&gt;Формирование закупок&lt;/span&gt;" style="html=1;align=center;verticalAlign=top;rounded=1;absoluteArcSize=1;arcSize=10;dashed=0;whiteSpace=wrap;" parent="1" vertex="1">
          <mxGeometry x="1610" y="1580" width="210" height="100" as="geometry" />
        </mxCell>
        <mxCell id="ozB75tdWuCOPc9oadPOf-5" value="" style="endArrow=classic;html=1;rounded=0;entryX=0.378;entryY=1.005;entryDx=0;entryDy=0;entryPerimeter=0;" parent="1" target="FY81dZ7kDu10n6bw8b0m-14" edge="1">
          <mxGeometry width="50" height="50" relative="1" as="geometry">
            <mxPoint x="1388" y="1540" as="sourcePoint" />
            <mxPoint x="1435" y="1500" as="targetPoint" />
          </mxGeometry>
        </mxCell>
        <mxCell id="ozB75tdWuCOPc9oadPOf-6" value="" style="endArrow=classic;html=1;rounded=0;entryX=0.378;entryY=1.005;entryDx=0;entryDy=0;entryPerimeter=0;" parent="1" edge="1">
          <mxGeometry width="50" height="50" relative="1" as="geometry">
            <mxPoint x="1430" y="1540" as="sourcePoint" />
            <mxPoint x="1430" y="1440" as="targetPoint" />
          </mxGeometry>
        </mxCell>
        <mxCell id="ozB75tdWuCOPc9oadPOf-7" value="" style="endArrow=classic;html=1;rounded=0;entryX=0.378;entryY=1.005;entryDx=0;entryDy=0;entryPerimeter=0;" parent="1" edge="1">
          <mxGeometry width="50" height="50" relative="1" as="geometry">
            <mxPoint x="1470" y="1540" as="sourcePoint" />
            <mxPoint x="1470" y="1440" as="targetPoint" />
          </mxGeometry>
        </mxCell>
        <mxCell id="ozB75tdWuCOPc9oadPOf-8" value="&lt;font style=&quot;font-size: 10px;&quot;&gt;Повара&lt;/font&gt;" style="text;html=1;strokeColor=none;fillColor=none;align=center;verticalAlign=middle;whiteSpace=wrap;rounded=0;rotation=-90;" parent="1" vertex="1">
          <mxGeometry x="1430" y="1480" width="60" height="30" as="geometry" />
        </mxCell>
        <mxCell id="ozB75tdWuCOPc9oadPOf-9" value="&lt;font style=&quot;font-size: 10px;&quot;&gt;Горничные&lt;/font&gt;" style="text;html=1;strokeColor=none;fillColor=none;align=center;verticalAlign=middle;whiteSpace=wrap;rounded=0;rotation=-90;" parent="1" vertex="1">
          <mxGeometry x="1390" y="1480" width="60" height="30" as="geometry" />
        </mxCell>
        <mxCell id="ozB75tdWuCOPc9oadPOf-10" value="&lt;font style=&quot;font-size: 10px;&quot;&gt;Администратор&lt;/font&gt;" style="text;html=1;strokeColor=none;fillColor=none;align=center;verticalAlign=middle;whiteSpace=wrap;rounded=0;rotation=-90;" parent="1" vertex="1">
          <mxGeometry x="1350" y="1480" width="60" height="30" as="geometry" />
        </mxCell>
        <mxCell id="ozB75tdWuCOPc9oadPOf-15" style="edgeStyle=orthogonalEdgeStyle;rounded=0;orthogonalLoop=1;jettySize=auto;html=1;exitX=1;exitY=0.75;exitDx=0;exitDy=0;entryX=-0.007;entryY=0.925;entryDx=0;entryDy=0;entryPerimeter=0;" parent="1" target="FY81dZ7kDu10n6bw8b0m-15" edge="1">
          <mxGeometry relative="1" as="geometry">
            <mxPoint x="1700" y="1339.9966666666667" as="targetPoint" />
            <mxPoint x="1500" y="1340.33" as="sourcePoint" />
            <Array as="points">
              <mxPoint x="1570" y="1340" />
              <mxPoint x="1570" y="1203" />
            </Array>
          </mxGeometry>
        </mxCell>
        <mxCell id="ozB75tdWuCOPc9oadPOf-16" style="edgeStyle=orthogonalEdgeStyle;rounded=0;orthogonalLoop=1;jettySize=auto;html=1;exitX=1;exitY=0.75;exitDx=0;exitDy=0;entryX=0;entryY=0.25;entryDx=0;entryDy=0;" parent="1" target="Dl9L8k3Tu2RgZ-j4ogxE-1" edge="1">
          <mxGeometry relative="1" as="geometry">
            <mxPoint x="1700" y="1429.9966666666667" as="targetPoint" />
            <mxPoint x="1500" y="1430.33" as="sourcePoint" />
          </mxGeometry>
        </mxCell>
        <mxCell id="ozB75tdWuCOPc9oadPOf-17" value="&lt;font style=&quot;font-size: 10px;&quot;&gt;Задачи персонала&lt;/font&gt;" style="text;html=1;strokeColor=none;fillColor=none;align=center;verticalAlign=middle;whiteSpace=wrap;rounded=0;rotation=0;" parent="1" vertex="1">
          <mxGeometry x="1530" y="1363" width="140" height="30" as="geometry" />
        </mxCell>
        <mxCell id="ozB75tdWuCOPc9oadPOf-18" value="&lt;font style=&quot;font-size: 10px;&quot;&gt;Прайс-лист&lt;br&gt;&amp;nbsp;на номера&lt;br&gt;&lt;/font&gt;" style="text;html=1;strokeColor=none;fillColor=none;align=center;verticalAlign=middle;whiteSpace=wrap;rounded=0;rotation=-90;" parent="1" vertex="1">
          <mxGeometry x="1500" y="1245" width="140" height="30" as="geometry" />
        </mxCell>
        <mxCell id="ozB75tdWuCOPc9oadPOf-19" value="&lt;font style=&quot;font-size: 10px;&quot;&gt;Запрос &lt;br&gt;расходых материалов&lt;/font&gt;" style="text;html=1;strokeColor=none;fillColor=none;align=center;verticalAlign=middle;whiteSpace=wrap;rounded=0;rotation=-90;" parent="1" vertex="1">
          <mxGeometry x="1474" y="1480" width="160" height="10" as="geometry" />
        </mxCell>
        <mxCell id="ozB75tdWuCOPc9oadPOf-22" value="&lt;font style=&quot;font-size: 10px;&quot;&gt;Отчеты&lt;/font&gt;" style="text;html=1;strokeColor=none;fillColor=none;align=center;verticalAlign=middle;whiteSpace=wrap;rounded=0;rotation=0;" parent="1" vertex="1">
          <mxGeometry x="1520" y="1400" width="160" height="10" as="geometry" />
        </mxCell>
        <mxCell id="ozB75tdWuCOPc9oadPOf-23" value="&lt;font style=&quot;font-size: 10px;&quot;&gt;Изменение номерного фонда&lt;/font&gt;" style="text;html=1;strokeColor=none;fillColor=none;align=center;verticalAlign=middle;whiteSpace=wrap;rounded=0;rotation=0;" parent="1" vertex="1">
          <mxGeometry x="1520" y="1350" width="160" height="10" as="geometry" />
        </mxCell>
        <mxCell id="ozB75tdWuCOPc9oadPOf-25" value="&lt;font style=&quot;font-size: 10px;&quot;&gt;Клиент&lt;br&gt;&lt;/font&gt;" style="text;html=1;strokeColor=none;fillColor=none;align=center;verticalAlign=middle;whiteSpace=wrap;rounded=0;rotation=-90;" parent="1" vertex="1">
          <mxGeometry x="1710" y="1245" width="60" height="30" as="geometry" />
        </mxCell>
        <mxCell id="ozB75tdWuCOPc9oadPOf-27" style="edgeStyle=orthogonalEdgeStyle;rounded=0;orthogonalLoop=1;jettySize=auto;html=1;exitX=-0.083;exitY=0.5;exitDx=0;exitDy=0;entryX=0.5;entryY=0;entryDx=0;entryDy=0;exitPerimeter=0;" parent="1" source="FY81dZ7kDu10n6bw8b0m-7" target="FY81dZ7kDu10n6bw8b0m-15" edge="1">
          <mxGeometry relative="1" as="geometry" />
        </mxCell>
        <mxCell id="ozB75tdWuCOPc9oadPOf-30" value="Данные о гостинице" style="text;html=1;strokeColor=none;fillColor=none;align=center;verticalAlign=middle;whiteSpace=wrap;rounded=0;rotation=0;" parent="1" vertex="1">
          <mxGeometry x="1470" y="1140" width="140" height="30" as="geometry" />
        </mxCell>
        <mxCell id="ozB75tdWuCOPc9oadPOf-34" value="&lt;font style=&quot;font-size: 10px;&quot;&gt;Отзывы&lt;/font&gt;" style="text;html=1;strokeColor=none;fillColor=none;align=center;verticalAlign=middle;whiteSpace=wrap;rounded=0;rotation=0;" parent="1" vertex="1">
          <mxGeometry x="1750" y="1125" width="140" height="15" as="geometry" />
        </mxCell>
        <mxCell id="ozB75tdWuCOPc9oadPOf-37" value="&lt;font style=&quot;font-size: 10px;&quot;&gt;Отчет о бронированиях&lt;/font&gt;" style="text;html=1;strokeColor=none;fillColor=none;align=center;verticalAlign=middle;whiteSpace=wrap;rounded=0;rotation=-90;" parent="1" vertex="1">
          <mxGeometry x="1750" y="1275" width="140" height="15" as="geometry" />
        </mxCell>
        <mxCell id="ozB75tdWuCOPc9oadPOf-41" value="&lt;font style=&quot;font-size: 10px;&quot;&gt;Пользовательское соглашение&lt;/font&gt;" style="text;html=1;strokeColor=none;fillColor=none;align=center;verticalAlign=middle;whiteSpace=wrap;rounded=0;rotation=0;" parent="1" vertex="1">
          <mxGeometry x="1230" y="1534" width="60" height="30" as="geometry" />
        </mxCell>
        <mxCell id="ozB75tdWuCOPc9oadPOf-43" value="&lt;font style=&quot;font-size: 10px;&quot;&gt;Данные с smart карты&lt;/font&gt;" style="text;html=1;strokeColor=none;fillColor=none;align=center;verticalAlign=middle;whiteSpace=wrap;rounded=0;rotation=0;" parent="1" vertex="1">
          <mxGeometry x="1020" y="1640" width="160" height="10" as="geometry" />
        </mxCell>
        <mxCell id="ozB75tdWuCOPc9oadPOf-45" value="&lt;font style=&quot;font-size: 10px;&quot;&gt;Администратор&lt;/font&gt;" style="text;html=1;strokeColor=none;fillColor=none;align=center;verticalAlign=middle;whiteSpace=wrap;rounded=0;rotation=-90;" parent="1" vertex="1">
          <mxGeometry x="1260" y="1720" width="60" height="30" as="geometry" />
        </mxCell>
        <mxCell id="ozB75tdWuCOPc9oadPOf-47" value="&lt;font style=&quot;font-size: 10px;&quot;&gt;Отчет о&amp;nbsp;&lt;br&gt;безопасности&lt;br&gt;&lt;/font&gt;" style="text;html=1;strokeColor=none;fillColor=none;align=center;verticalAlign=middle;whiteSpace=wrap;rounded=0;rotation=0;" parent="1" vertex="1">
          <mxGeometry x="1310" y="1664" width="160" height="10" as="geometry" />
        </mxCell>
        <mxCell id="ozB75tdWuCOPc9oadPOf-51" value="&lt;font style=&quot;font-size: 10px;&quot;&gt;Администратор&lt;/font&gt;" style="text;html=1;strokeColor=none;fillColor=none;align=center;verticalAlign=middle;whiteSpace=wrap;rounded=0;rotation=-90;" parent="1" vertex="1">
          <mxGeometry x="1680" y="1720" width="60" height="30" as="geometry" />
        </mxCell>
        <mxCell id="ozB75tdWuCOPc9oadPOf-54" value="&lt;font style=&quot;font-size: 10px;&quot;&gt;Данные о заказе&lt;/font&gt;" style="text;html=1;strokeColor=none;fillColor=none;align=center;verticalAlign=middle;whiteSpace=wrap;rounded=0;rotation=-90;" parent="1" vertex="1">
          <mxGeometry x="1754" y="1500" width="160" height="10" as="geometry" />
        </mxCell>
        <mxCell id="ozB75tdWuCOPc9oadPOf-57" value="&lt;font style=&quot;font-size: 10px;&quot;&gt;Данные о&lt;br&gt;расходных материалах&lt;br&gt;&lt;/font&gt;" style="text;html=1;strokeColor=none;fillColor=none;align=center;verticalAlign=middle;whiteSpace=wrap;rounded=0;rotation=-90;" parent="1" vertex="1">
          <mxGeometry x="1480" y="1710" width="160" height="16" as="geometry" />
        </mxCell>
        <mxCell id="ozB75tdWuCOPc9oadPOf-59" value="&lt;font style=&quot;font-size: 10px;&quot;&gt;Жкрнал работы&lt;br&gt;системы&lt;br&gt;&lt;/font&gt;" style="text;html=1;strokeColor=none;fillColor=none;align=center;verticalAlign=middle;whiteSpace=wrap;rounded=0;rotation=0;" parent="1" vertex="1">
          <mxGeometry x="1990" y="1378" width="140" height="15" as="geometry" />
        </mxCell>
        <mxCell id="ozB75tdWuCOPc9oadPOf-60" value="" style="endArrow=classic;html=1;rounded=0;entryX=0.95;entryY=0.991;entryDx=0;entryDy=0;entryPerimeter=0;" parent="1" target="FY81dZ7kDu10n6bw8b0m-14" edge="1">
          <mxGeometry width="50" height="50" relative="1" as="geometry">
            <mxPoint x="990" y="1820" as="sourcePoint" />
            <mxPoint x="1580" y="1460" as="targetPoint" />
            <Array as="points">
              <mxPoint x="1491" y="1820" />
            </Array>
          </mxGeometry>
        </mxCell>
        <mxCell id="ozB75tdWuCOPc9oadPOf-71" value="" style="endArrow=classic;html=1;rounded=0;entryX=0.378;entryY=1.005;entryDx=0;entryDy=0;entryPerimeter=0;" parent="1" edge="1">
          <mxGeometry width="50" height="50" relative="1" as="geometry">
            <mxPoint x="1710" y="1330" as="sourcePoint" />
            <mxPoint x="1710" y="1211" as="targetPoint" />
          </mxGeometry>
        </mxCell>
        <mxCell id="ozB75tdWuCOPc9oadPOf-72" value="&lt;font style=&quot;font-size: 10px;&quot;&gt;Администратор&lt;/font&gt;" style="text;html=1;strokeColor=none;fillColor=none;align=center;verticalAlign=middle;whiteSpace=wrap;rounded=0;rotation=-90;" parent="1" vertex="1">
          <mxGeometry x="1670" y="1260" width="60" height="30" as="geometry" />
        </mxCell>
        <mxCell id="ozB75tdWuCOPc9oadPOf-75" value="&lt;font style=&quot;font-size: 10px;&quot;&gt;Система&lt;br&gt;&lt;/font&gt;" style="text;html=1;strokeColor=none;fillColor=none;align=center;verticalAlign=middle;whiteSpace=wrap;rounded=0;rotation=-90;" parent="1" vertex="1">
          <mxGeometry x="1620" y="1260" width="60" height="30" as="geometry" />
        </mxCell>
        <mxCell id="ozB75tdWuCOPc9oadPOf-78" value="&lt;font style=&quot;font-size: 10px;&quot;&gt;Идентификатор администратора&lt;/font&gt;" style="text;html=1;strokeColor=none;fillColor=none;align=center;verticalAlign=middle;whiteSpace=wrap;rounded=0;rotation=-90;" parent="1" vertex="1">
          <mxGeometry x="1380" y="1230" width="60" height="30" as="geometry" />
        </mxCell>
        <mxCell id="ozB75tdWuCOPc9oadPOf-80" value="&lt;font style=&quot;font-size: 10px;&quot;&gt;Данные о работе системы безопасности&lt;/font&gt;" style="text;html=1;strokeColor=none;fillColor=none;align=center;verticalAlign=middle;whiteSpace=wrap;rounded=0;rotation=0;" parent="1" vertex="1">
          <mxGeometry x="1600" y="1544" width="160" height="10" as="geometry" />
        </mxCell>
        <mxCell id="ozB75tdWuCOPc9oadPOf-81" value="1" style="text;html=1;strokeColor=none;fillColor=none;align=center;verticalAlign=middle;whiteSpace=wrap;rounded=0;" parent="1" vertex="1">
          <mxGeometry x="1140" y="1205" width="10" height="15" as="geometry" />
        </mxCell>
        <mxCell id="ozB75tdWuCOPc9oadPOf-82" value="2" style="text;html=1;strokeColor=none;fillColor=none;align=center;verticalAlign=middle;whiteSpace=wrap;rounded=0;" parent="1" vertex="1">
          <mxGeometry x="1780" y="1195" width="10" height="15" as="geometry" />
        </mxCell>
        <mxCell id="ozB75tdWuCOPc9oadPOf-83" value="3" style="text;html=1;strokeColor=none;fillColor=none;align=center;verticalAlign=middle;whiteSpace=wrap;rounded=0;" parent="1" vertex="1">
          <mxGeometry x="1490" y="1425" width="10" height="15" as="geometry" />
        </mxCell>
        <mxCell id="ozB75tdWuCOPc9oadPOf-84" value="5" style="text;html=1;strokeColor=none;fillColor=none;align=center;verticalAlign=middle;whiteSpace=wrap;rounded=0;" parent="1" vertex="1">
          <mxGeometry x="1810" y="1665" width="10" height="15" as="geometry" />
        </mxCell>
        <mxCell id="ozB75tdWuCOPc9oadPOf-85" value="4" style="text;html=1;strokeColor=none;fillColor=none;align=center;verticalAlign=middle;whiteSpace=wrap;rounded=0;" parent="1" vertex="1">
          <mxGeometry x="1330" y="1665" width="10" height="15" as="geometry" />
        </mxCell>
        <mxCell id="ozB75tdWuCOPc9oadPOf-86" value="6" style="text;html=1;strokeColor=none;fillColor=none;align=center;verticalAlign=middle;whiteSpace=wrap;rounded=0;" parent="1" vertex="1">
          <mxGeometry x="2000" y="1415" width="10" height="15" as="geometry" />
        </mxCell>
      </root>
    </mxGraphModel>
  </diagram>
  <diagram id="30CSTh-y9SVbLgZfz-_A" name="Страница — 2">
    <mxGraphModel dx="5413" dy="2800" grid="1" gridSize="10" guides="1" tooltips="1" connect="1" arrows="1" fold="1" page="1" pageScale="1" pageWidth="3300" pageHeight="2339" math="0" shadow="0">
      <root>
        <mxCell id="0" />
        <mxCell id="1" parent="0" />
      </root>
    </mxGraphModel>
  </diagram>
</mxfile>
